<mxfile host="Electron" modified="2024-04-26T14:29:37.288Z" agent="Mozilla/5.0 (Windows NT 10.0; Win64; x64) AppleWebKit/537.36 (KHTML, like Gecko) draw.io/24.2.5 Chrome/120.0.6099.109 Electron/28.1.0 Safari/537.36" etag="36VyT3SmNZ0ikIeB-MVj" version="24.2.5" type="device">
  <diagram id="C5RBs43oDa-KdzZeNtuy" name="Page-1">
    <mxGraphModel dx="1120" dy="532" grid="1" gridSize="10" guides="1" tooltips="1" connect="1" arrows="1" fold="1" page="1" pageScale="1" pageWidth="827" pageHeight="1169" math="0" shadow="0">
      <root>
        <mxCell id="WIyWlLk6GJQsqaUBKTNV-0" />
        <mxCell id="WIyWlLk6GJQsqaUBKTNV-1" parent="WIyWlLk6GJQsqaUBKTNV-0" />
        <mxCell id="5p851_JDaZPqq-h186f_-1" value="" style="edgeStyle=orthogonalEdgeStyle;rounded=0;orthogonalLoop=1;jettySize=auto;html=1;" edge="1" parent="WIyWlLk6GJQsqaUBKTNV-1" source="WIyWlLk6GJQsqaUBKTNV-3" target="5p851_JDaZPqq-h186f_-0">
          <mxGeometry relative="1" as="geometry" />
        </mxCell>
        <mxCell id="WIyWlLk6GJQsqaUBKTNV-3" value="START" style="rounded=1;whiteSpace=wrap;html=1;fontSize=12;glass=0;strokeWidth=1;shadow=0;" parent="WIyWlLk6GJQsqaUBKTNV-1" vertex="1">
          <mxGeometry x="105" y="80" width="120" height="40" as="geometry" />
        </mxCell>
        <mxCell id="5p851_JDaZPqq-h186f_-3" value="" style="edgeStyle=orthogonalEdgeStyle;rounded=0;orthogonalLoop=1;jettySize=auto;html=1;" edge="1" parent="WIyWlLk6GJQsqaUBKTNV-1" source="5p851_JDaZPqq-h186f_-0" target="5p851_JDaZPqq-h186f_-2">
          <mxGeometry relative="1" as="geometry" />
        </mxCell>
        <mxCell id="5p851_JDaZPqq-h186f_-0" value="Save number to variable" style="whiteSpace=wrap;html=1;rounded=1;glass=0;strokeWidth=1;shadow=0;" vertex="1" parent="WIyWlLk6GJQsqaUBKTNV-1">
          <mxGeometry x="110" y="200" width="120" height="60" as="geometry" />
        </mxCell>
        <mxCell id="5p851_JDaZPqq-h186f_-5" value="" style="edgeStyle=orthogonalEdgeStyle;rounded=0;orthogonalLoop=1;jettySize=auto;html=1;" edge="1" parent="WIyWlLk6GJQsqaUBKTNV-1" source="5p851_JDaZPqq-h186f_-2" target="5p851_JDaZPqq-h186f_-4">
          <mxGeometry relative="1" as="geometry" />
        </mxCell>
        <mxCell id="5p851_JDaZPqq-h186f_-2" value="Print number to video" style="whiteSpace=wrap;html=1;rounded=1;glass=0;strokeWidth=1;shadow=0;" vertex="1" parent="WIyWlLk6GJQsqaUBKTNV-1">
          <mxGeometry x="110" y="310" width="120" height="60" as="geometry" />
        </mxCell>
        <mxCell id="5p851_JDaZPqq-h186f_-20" value="" style="edgeStyle=orthogonalEdgeStyle;rounded=0;orthogonalLoop=1;jettySize=auto;html=1;" edge="1" parent="WIyWlLk6GJQsqaUBKTNV-1" source="5p851_JDaZPqq-h186f_-4" target="5p851_JDaZPqq-h186f_-19">
          <mxGeometry relative="1" as="geometry" />
        </mxCell>
        <mxCell id="5p851_JDaZPqq-h186f_-21" value="YES" style="edgeLabel;html=1;align=center;verticalAlign=middle;resizable=0;points=[];" vertex="1" connectable="0" parent="5p851_JDaZPqq-h186f_-20">
          <mxGeometry x="-0.1" y="-4" relative="1" as="geometry">
            <mxPoint as="offset" />
          </mxGeometry>
        </mxCell>
        <mxCell id="5p851_JDaZPqq-h186f_-23" value="" style="edgeStyle=orthogonalEdgeStyle;rounded=0;orthogonalLoop=1;jettySize=auto;html=1;" edge="1" parent="WIyWlLk6GJQsqaUBKTNV-1" source="5p851_JDaZPqq-h186f_-4" target="5p851_JDaZPqq-h186f_-22">
          <mxGeometry relative="1" as="geometry" />
        </mxCell>
        <mxCell id="5p851_JDaZPqq-h186f_-29" value="NO" style="edgeLabel;html=1;align=center;verticalAlign=middle;resizable=0;points=[];" vertex="1" connectable="0" parent="5p851_JDaZPqq-h186f_-23">
          <mxGeometry x="-0.0909" y="1" relative="1" as="geometry">
            <mxPoint as="offset" />
          </mxGeometry>
        </mxCell>
        <mxCell id="5p851_JDaZPqq-h186f_-4" value="Is number divisible&lt;div&gt;by 15?&lt;/div&gt;" style="rhombus;whiteSpace=wrap;html=1;rounded=1;glass=0;strokeWidth=1;shadow=0;" vertex="1" parent="WIyWlLk6GJQsqaUBKTNV-1">
          <mxGeometry x="95" y="410" width="150" height="110" as="geometry" />
        </mxCell>
        <mxCell id="5p851_JDaZPqq-h186f_-19" value="Save &quot;Fizz buzz&quot; to string" style="whiteSpace=wrap;html=1;rounded=1;glass=0;strokeWidth=1;shadow=0;" vertex="1" parent="WIyWlLk6GJQsqaUBKTNV-1">
          <mxGeometry x="110" y="600" width="120" height="60" as="geometry" />
        </mxCell>
        <mxCell id="5p851_JDaZPqq-h186f_-25" value="" style="edgeStyle=orthogonalEdgeStyle;rounded=0;orthogonalLoop=1;jettySize=auto;html=1;" edge="1" parent="WIyWlLk6GJQsqaUBKTNV-1" source="5p851_JDaZPqq-h186f_-22" target="5p851_JDaZPqq-h186f_-24">
          <mxGeometry relative="1" as="geometry" />
        </mxCell>
        <mxCell id="5p851_JDaZPqq-h186f_-26" value="YES" style="edgeLabel;html=1;align=center;verticalAlign=middle;resizable=0;points=[];" vertex="1" connectable="0" parent="5p851_JDaZPqq-h186f_-25">
          <mxGeometry y="3" relative="1" as="geometry">
            <mxPoint as="offset" />
          </mxGeometry>
        </mxCell>
        <mxCell id="5p851_JDaZPqq-h186f_-28" value="" style="edgeStyle=orthogonalEdgeStyle;rounded=0;orthogonalLoop=1;jettySize=auto;html=1;" edge="1" parent="WIyWlLk6GJQsqaUBKTNV-1" source="5p851_JDaZPqq-h186f_-22" target="5p851_JDaZPqq-h186f_-27">
          <mxGeometry relative="1" as="geometry" />
        </mxCell>
        <mxCell id="5p851_JDaZPqq-h186f_-30" value="NO" style="edgeLabel;html=1;align=center;verticalAlign=middle;resizable=0;points=[];" vertex="1" connectable="0" parent="5p851_JDaZPqq-h186f_-28">
          <mxGeometry x="-0.3778" y="1" relative="1" as="geometry">
            <mxPoint as="offset" />
          </mxGeometry>
        </mxCell>
        <mxCell id="5p851_JDaZPqq-h186f_-22" value="Is number divisible&lt;div&gt;by 5?&lt;/div&gt;" style="rhombus;whiteSpace=wrap;html=1;rounded=1;glass=0;strokeWidth=1;shadow=0;" vertex="1" parent="WIyWlLk6GJQsqaUBKTNV-1">
          <mxGeometry x="300" y="410" width="150" height="110" as="geometry" />
        </mxCell>
        <mxCell id="5p851_JDaZPqq-h186f_-24" value="Save &quot;Buzz&quot; to string" style="whiteSpace=wrap;html=1;rounded=1;glass=0;strokeWidth=1;shadow=0;" vertex="1" parent="WIyWlLk6GJQsqaUBKTNV-1">
          <mxGeometry x="315" y="600" width="120" height="60" as="geometry" />
        </mxCell>
        <mxCell id="5p851_JDaZPqq-h186f_-32" value="" style="edgeStyle=orthogonalEdgeStyle;rounded=0;orthogonalLoop=1;jettySize=auto;html=1;" edge="1" parent="WIyWlLk6GJQsqaUBKTNV-1" source="5p851_JDaZPqq-h186f_-27" target="5p851_JDaZPqq-h186f_-31">
          <mxGeometry relative="1" as="geometry" />
        </mxCell>
        <mxCell id="5p851_JDaZPqq-h186f_-33" value="YES" style="edgeLabel;html=1;align=center;verticalAlign=middle;resizable=0;points=[];" vertex="1" connectable="0" parent="5p851_JDaZPqq-h186f_-32">
          <mxGeometry x="0.025" y="2" relative="1" as="geometry">
            <mxPoint as="offset" />
          </mxGeometry>
        </mxCell>
        <mxCell id="5p851_JDaZPqq-h186f_-39" value="" style="edgeStyle=orthogonalEdgeStyle;rounded=0;orthogonalLoop=1;jettySize=auto;html=1;" edge="1" parent="WIyWlLk6GJQsqaUBKTNV-1" source="5p851_JDaZPqq-h186f_-27" target="5p851_JDaZPqq-h186f_-38">
          <mxGeometry relative="1" as="geometry" />
        </mxCell>
        <mxCell id="5p851_JDaZPqq-h186f_-42" value="NO" style="edgeLabel;html=1;align=center;verticalAlign=middle;resizable=0;points=[];" vertex="1" connectable="0" parent="5p851_JDaZPqq-h186f_-39">
          <mxGeometry x="-0.2" y="-2" relative="1" as="geometry">
            <mxPoint as="offset" />
          </mxGeometry>
        </mxCell>
        <mxCell id="5p851_JDaZPqq-h186f_-27" value="Is number divisible&lt;div&gt;by 3?&lt;/div&gt;" style="rhombus;whiteSpace=wrap;html=1;rounded=1;glass=0;strokeWidth=1;shadow=0;" vertex="1" parent="WIyWlLk6GJQsqaUBKTNV-1">
          <mxGeometry x="485" y="410" width="150" height="110" as="geometry" />
        </mxCell>
        <mxCell id="5p851_JDaZPqq-h186f_-31" value="Save &quot;Fizz&quot; to string" style="whiteSpace=wrap;html=1;rounded=1;glass=0;strokeWidth=1;shadow=0;" vertex="1" parent="WIyWlLk6GJQsqaUBKTNV-1">
          <mxGeometry x="500" y="600" width="120" height="60" as="geometry" />
        </mxCell>
        <mxCell id="5p851_JDaZPqq-h186f_-37" style="edgeStyle=orthogonalEdgeStyle;rounded=0;orthogonalLoop=1;jettySize=auto;html=1;exitX=0;exitY=0.5;exitDx=0;exitDy=0;entryX=0;entryY=0.5;entryDx=0;entryDy=0;" edge="1" parent="WIyWlLk6GJQsqaUBKTNV-1" source="5p851_JDaZPqq-h186f_-34" target="5p851_JDaZPqq-h186f_-2">
          <mxGeometry relative="1" as="geometry" />
        </mxCell>
        <mxCell id="5p851_JDaZPqq-h186f_-34" value="Increment number by1" style="whiteSpace=wrap;html=1;rounded=1;glass=0;strokeWidth=1;shadow=0;" vertex="1" parent="WIyWlLk6GJQsqaUBKTNV-1">
          <mxGeometry x="645" y="720" width="120" height="60" as="geometry" />
        </mxCell>
        <mxCell id="5p851_JDaZPqq-h186f_-40" style="edgeStyle=orthogonalEdgeStyle;rounded=0;orthogonalLoop=1;jettySize=auto;html=1;exitX=0.5;exitY=1;exitDx=0;exitDy=0;entryX=0.5;entryY=0;entryDx=0;entryDy=0;" edge="1" parent="WIyWlLk6GJQsqaUBKTNV-1" source="5p851_JDaZPqq-h186f_-38" target="5p851_JDaZPqq-h186f_-34">
          <mxGeometry relative="1" as="geometry" />
        </mxCell>
        <mxCell id="5p851_JDaZPqq-h186f_-41" value="YES" style="edgeLabel;html=1;align=center;verticalAlign=middle;resizable=0;points=[];" vertex="1" connectable="0" parent="5p851_JDaZPqq-h186f_-40">
          <mxGeometry x="-0.5152" y="1" relative="1" as="geometry">
            <mxPoint as="offset" />
          </mxGeometry>
        </mxCell>
        <mxCell id="5p851_JDaZPqq-h186f_-45" value="" style="edgeStyle=orthogonalEdgeStyle;rounded=0;orthogonalLoop=1;jettySize=auto;html=1;" edge="1" parent="WIyWlLk6GJQsqaUBKTNV-1" source="5p851_JDaZPqq-h186f_-38" target="5p851_JDaZPqq-h186f_-44">
          <mxGeometry relative="1" as="geometry">
            <Array as="points">
              <mxPoint x="810" y="465" />
              <mxPoint x="810" y="890" />
            </Array>
          </mxGeometry>
        </mxCell>
        <mxCell id="5p851_JDaZPqq-h186f_-46" value="NO" style="edgeLabel;html=1;align=center;verticalAlign=middle;resizable=0;points=[];" vertex="1" connectable="0" parent="5p851_JDaZPqq-h186f_-45">
          <mxGeometry x="-0.4118" y="-1" relative="1" as="geometry">
            <mxPoint as="offset" />
          </mxGeometry>
        </mxCell>
        <mxCell id="5p851_JDaZPqq-h186f_-38" value="Is number&amp;lt;100?" style="rhombus;whiteSpace=wrap;html=1;rounded=1;glass=0;strokeWidth=1;shadow=0;" vertex="1" parent="WIyWlLk6GJQsqaUBKTNV-1">
          <mxGeometry x="680" y="425" width="115" height="80" as="geometry" />
        </mxCell>
        <mxCell id="5p851_JDaZPqq-h186f_-44" value="END" style="whiteSpace=wrap;html=1;rounded=1;glass=0;strokeWidth=1;shadow=0;" vertex="1" parent="WIyWlLk6GJQsqaUBKTNV-1">
          <mxGeometry x="365" y="860" width="120" height="60" as="geometry" />
        </mxCell>
      </root>
    </mxGraphModel>
  </diagram>
</mxfile>
